HIERARCHY
ROOT Hips
{
	OFFSET 0.000000 0.000000 0.000000
	CHANNELS 6 Xposition Yposition Zposition Zrotation Yrotation Xrotation 
	JOINT LHipJoint
	{
		OFFSET 0.000000 0.000000 0.000000
		CHANNELS 3 Zrotation Yrotation Xrotation
		JOINT LeftUpLeg
		{
			OFFSET 1.363060 -1.794630 0.839290
			CHANNELS 3 Zrotation Yrotation Xrotation
			JOINT LeftLeg
			{
				OFFSET 2.448110 -6.726130 0.000000
				CHANNELS 3 Zrotation Yrotation Xrotation
				JOINT LeftFoot
				{
					OFFSET 2.562200 -7.039590 0.000000
					CHANNELS 3 Zrotation Yrotation Xrotation
					JOINT LeftToeBase
					{
						OFFSET 0.157640 -0.433110 2.322550
						CHANNELS 3 Zrotation Yrotation Xrotation
						End Site
						{
							OFFSET 0.000000 0.000000 0.000000
						}
					}
				}
			}
		}
	}
	JOINT RHipJoint
	{
		OFFSET 0.000000 0.000000 0.000000
		CHANNELS 3 Zrotation Yrotation Xrotation
		JOINT RightUpLeg
		{
			OFFSET -1.305520 -1.794630 0.839290
			CHANNELS 3 Zrotation Yrotation Xrotation
			JOINT RightLeg
			{
				OFFSET -2.542530 -6.985550 0.000000
				CHANNELS 3 Zrotation Yrotation Xrotation
				JOINT RightFoot
				{
					OFFSET -2.568260 -7.056230 0.000000
					CHANNELS 3 Zrotation Yrotation Xrotation
					JOINT RightToeBase
					{
						OFFSET -0.164730 -0.452590 2.363150
						CHANNELS 3 Zrotation Yrotation Xrotation
						End Site
						{
							OFFSET 0.000000 0.000000 0.000000
						}
					}
				}
			}
		}
	}
	JOINT LowerBack
	{
		OFFSET 0.000000 0.000000 0.000000
		CHANNELS 3 Zrotation Yrotation Xrotation
		JOINT Spine
		{
			OFFSET 0.028270 2.035590 -0.193380
			CHANNELS 3 Zrotation Yrotation Xrotation
			JOINT Spine1
			{
				OFFSET 0.056720 2.048850 -0.042750
				CHANNELS 3 Zrotation Yrotation Xrotation
				JOINT Neck
				{
					OFFSET 0.000000 0.000000 0.000000
					CHANNELS 3 Zrotation Yrotation Xrotation
					JOINT Neck1
					{
						OFFSET -0.054170 1.746240 0.172020
						CHANNELS 3 Zrotation Yrotation Xrotation
						JOINT Head
						{
							OFFSET 0.104070 1.761360 -0.123970
							CHANNELS 3 Zrotation Yrotation Xrotation
							End Site
							{
								OFFSET 0.000000 0.000000 0.000000
							}
						}
					}
				}
				JOINT LeftShoulder
				{
					OFFSET 0.000000 0.000000 0.000000
					CHANNELS 3 Zrotation Yrotation Xrotation
					JOINT LeftArm
					{
						OFFSET 3.362410 1.200890 -0.311210
						CHANNELS 3 Zrotation Yrotation Xrotation
						JOINT LeftForeArm
						{
							OFFSET 4.983000 -0.000000 -0.000000
							CHANNELS 3 Zrotation Yrotation Xrotation
							JOINT LeftHand
							{
								OFFSET 3.483560 -0.000000 -0.000000
								CHANNELS 3 Zrotation Yrotation Xrotation
								JOINT LeftFingerBase
								{
									OFFSET 0.000000 0.000000 0.000000
									CHANNELS 3 Zrotation Yrotation Xrotation
									JOINT LeftHandIndex1
									{
										OFFSET 0.715260 -0.000000 -0.000000
										CHANNELS 3 Zrotation Yrotation Xrotation
										End Site
										{
											OFFSET 0.000000 0.000000 0.000000
										}
									}
								}
								JOINT LThumb
								{
									OFFSET 0.000000 0.000000 0.000000
									CHANNELS 3 Zrotation Yrotation Xrotation
									End Site
									{
										OFFSET 0.000000 0.000000 0.000000
									}
								}
							}
						}
					}
				}
				JOINT RightShoulder
				{
					OFFSET 0.000000 0.000000 0.000000
					CHANNELS 3 Zrotation Yrotation Xrotation
					JOINT RightArm
					{
						OFFSET -3.136600 1.374050 -0.404650
						CHANNELS 3 Zrotation Yrotation Xrotation
						JOINT RightForeArm
						{
							OFFSET -5.241900 -0.000000 -0.000000
							CHANNELS 3 Zrotation Yrotation Xrotation
							JOINT RightHand
							{
								OFFSET -3.444170 -0.000000 -0.000000
								CHANNELS 3 Zrotation Yrotation Xrotation
								JOINT RightFingerBase
								{
									OFFSET 0.000000 0.000000 0.000000
									CHANNELS 3 Zrotation Yrotation Xrotation
									JOINT RightHandIndex1
									{
										OFFSET -0.622530 -0.000000 -0.000000
										CHANNELS 3 Zrotation Yrotation Xrotation
										End Site
										{
											OFFSET 0.000000 0.000000 0.000000
										}
									}
								}
								JOINT RThumb
								{
									OFFSET 0.000000 0.000000 0.000000
									CHANNELS 3 Zrotation Yrotation Xrotation
									End Site
									{
										OFFSET 0.000000 0.000000 0.000000
									}
								}
							}
						}
					}
				}
			}
		}
	}
}
MOTION
Frames: 12
Frame Time: 0.008333
0.054526 18.143147 8.202619 -5.593530 -3.490321 1.646718 -0.221097 4.175449 2.675496 -10.039931 -7.038190 -31.143101 4.679691 13.883187 43.299367 -0.731418 4.232343 7.433523 0.232800 -3.105700 -8.573300 2.422859 -4.949598 5.359565 27.421590 10.267724 -4.107306 -0.808644 -5.866971 23.996746 0.559337 -3.021899 0.257972 -0.196900 -2.857500 7.882200 5.706130 1.475960 5.722366 4.258684 2.742530 2.802685 -1.841115 1.150044 -8.023127 -4.972407 -4.405057 -15.255270 2.701144 -4.966694 20.501411 -0.463200 -2.024100 9.854600 -7.225502 2.823800 -1.302554 -82.017711 6.935254 23.687137 11.854509 -20.363342 -2.244394 -0.619691 -0.831509 -3.891680 28.578381 17.658601 10.044500 -7.125000 0.000000 0.000000 1.144200 50.885200 0.165900 11.307960 -1.572338 -2.241336 72.081238 5.896287 18.260936 -11.623428 23.787411 -2.953491 1.089687 -0.411889 0.924664 -18.691763 22.334146 -7.870100 7.125000 0.000000 0.000000 5.728600 -6.219500 5.100500
0.057414 18.130351 8.298130 -5.665520 -3.650219 1.732420 -0.291765 4.145040 2.639278 -9.796987 -7.163430 -31.096399 4.257823 13.516411 41.773828 -0.816709 4.643892 7.818738 0.161911 -2.544236 -7.015038 2.442394 -4.955469 5.393277 27.467924 10.270001 -3.795860 -0.792624 -5.825535 23.893692 0.571782 -3.060556 0.146820 -0.182666 -2.751025 7.586443 5.785209 1.557390 5.629822 4.252058 2.846178 2.838236 -1.892806 1.208163 -7.927184 -5.008865 -4.375456 -15.246720 2.787627 -4.931972 20.371747 -0.426936 -2.004726 9.812631 -7.228650 2.823593 -1.304838 -82.072784 6.956408 23.528190 11.768670 -20.229891 -2.211822 -0.617718 -0.831972 -3.952368 28.467153 17.648507 9.994059 -7.125000 0.000000 0.000000 1.031907 50.853399 0.148898 11.308379 -1.561607 -2.230747 71.982959 6.243412 18.449459 -11.617777 23.764863 -2.940803 1.099482 -0.428813 0.873141 -18.941981 22.692616 -8.104571 7.125000 0.000000 0.000000 5.598175 -5.794278 5.028142
0.060756 18.116204 8.393056 -5.720956 -3.784096 1.827331 -0.367634 4.114814 2.602019 -9.562994 -7.319351 -31.031405 3.839197 13.140210 40.235402 -0.911874 5.104273 8.309213 0.093849 -1.887787 -5.197752 2.464675 -4.961814 5.427503 27.492278 10.263294 -3.494032 -0.772628 -5.779250 23.771076 0.592846 -3.123140 0.058210 -0.171051 -2.663967 7.344644 5.859123 1.630835 5.556746 4.230530 2.940994 2.851703 -1.950672 1.259695 -7.860481 -5.040611 -4.361962 -15.253885 2.871888 -4.918577 20.271789 -0.394603 -1.994093 9.782907 -7.230333 2.825340 -1.307584 -82.110906 7.005060 23.414991 11.704782 -20.132041 -2.187294 -0.614816 -0.836181 -4.050687 28.374680 17.753520 10.011195 -7.125000 0.000000 0.000000 0.918097 50.956013 0.134166 11.308266 -1.551288 -2.220387 71.904477 6.558294 18.628028 -11.621788 23.756717 -2.931693 1.110510 -0.446145 0.838029 -19.237013 23.066690 -8.366423 7.125000 0.000000 0.000000 5.441563 -5.345255 4.932865
0.065624 18.097521 8.486020 -5.720858 -3.830676 1.953135 -0.460953 4.085208 2.561264 -9.359029 -7.578201 -30.905043 3.431448 12.732387 38.653743 -1.040166 5.728473 9.152820 0.035274 -0.912680 -2.511478 2.496162 -4.969746 5.463456 27.442890 10.226447 -3.224469 -0.739289 -5.716696 23.582833 0.642824 -3.265998 0.045225 -0.168227 -2.642051 7.283865 5.915707 1.677492 5.548983 4.159013 3.006182 2.791083 -2.029250 1.289127 -7.891873 -5.056549 -4.402505 -15.313769 2.948692 -4.976729 20.271492 -0.375454 -2.012790 9.794261 -7.227100 2.833646 -1.311880 -82.092163 7.145962 23.455270 11.714533 -20.153626 -2.189752 -0.608795 -0.852959 -4.275247 28.345128 18.244704 10.255042 -7.125000 0.000000 0.000000 0.799195 51.509569 0.127049 11.306374 -1.542352 -2.210799 71.892416 6.765003 18.773204 -11.658215 23.796891 -2.934590 1.125678 -0.464847 0.857971 -19.682389 23.493113 -8.720134 7.125000 0.000000 0.000000 5.197094 -4.816383 4.760698
0.070259 18.083596 8.578879 -5.747106 -3.885412 2.086284 -0.551446 4.052786 2.515994 -9.118326 -7.833113 -30.802365 3.026378 12.314942 37.058794 -1.160773 6.317065 9.868625 0.002926 -0.231334 -0.635588 2.527805 -4.978509 5.500194 27.419503 10.214380 -2.924102 -0.700716 -5.643338 23.365028 0.691779 -3.407343 -0.002715 -0.165844 -2.623481 7.232322 5.980446 1.721364 5.554112 4.098878 3.070571 2.706207 -2.104917 1.316478 -7.949324 -5.021223 -4.432470 -15.370641 2.987656 -5.027740 20.320064 -0.375139 -2.026895 9.819389 -7.225650 2.842724 -1.315071 -82.070693 7.288147 23.470752 11.671659 -20.096951 -2.172634 -0.607333 -0.870372 -4.461347 28.422441 18.749452 10.552951 -7.125000 0.000000 0.000000 0.789429 52.099133 0.139076 11.304834 -1.534665 -2.202564 71.884099 6.931503 18.917994 -11.699746 23.847514 -2.942789 1.137317 -0.477912 0.876172 -20.044592 23.803002 -8.996669 7.125000 0.000000 0.000000 4.996103 -4.425623 4.613175
0.074619 18.075273 8.671616 -5.804376 -3.949754 2.228082 -0.638613 4.017049 2.465406 -8.834369 -8.083388 -30.727574 2.624465 11.886170 35.448199 -1.272332 6.863729 10.433954 0.001457 0.104133 0.286140 2.559629 -4.988247 5.537854 27.426730 10.231489 -2.587464 -0.655980 -5.557261 23.112415 0.739528 -3.546906 -0.091810 -0.163980 -2.608851 7.191653 6.054787 1.761954 5.574419 4.052148 3.134020 2.592771 -2.177158 1.341379 -8.037458 -4.925537 -4.449982 -15.423966 2.982063 -5.070342 20.426175 -0.396999 -2.035594 9.860736 -7.226301 2.852713 -1.316961 -82.046013 7.431843 23.457039 11.566826 -19.948133 -2.132468 -0.611236 -0.888535 -4.602164 28.625579 19.270171 10.914514 -7.125000 0.000000 0.000000 0.908161 52.731091 0.173645 11.303708 -1.528450 -2.195924 71.880191 7.050661 19.062331 -11.747289 23.910439 -2.957233 1.144801 -0.484341 0.892323 -20.308866 23.975683 -9.182337 7.125000 0.000000 0.000000 4.846304 -4.197478 4.494669
0.079134 18.075726 8.768331 -5.909938 -4.053738 2.366369 -0.718399 3.979929 2.412749 -8.494074 -8.339186 -30.665634 2.227055 11.442715 33.839633 -1.365402 7.268997 10.584692 0.002595 -0.052328 -0.143745 2.589064 -4.998443 5.580350 27.461367 10.221229 -2.212224 -0.602365 -5.452731 22.814221 0.747731 -3.569768 -0.160630 -0.162777 -2.599397 7.165381 6.158049 1.793373 5.543670 4.058420 3.183686 2.513750 -2.226306 1.363868 -8.071569 -4.877666 -4.414563 -15.446753 2.958344 -5.026506 20.477985 -0.406757 -2.012696 9.880371 -7.231134 2.858755 -1.315015 -82.107690 7.460858 23.055877 11.369846 -19.646919 -2.060480 -0.620473 -0.886273 -4.257600 28.660367 19.302350 10.947347 -7.125000 0.000000 0.000000 0.942610 52.774581 0.180392 11.303016 -1.520739 -2.190332 71.821162 7.208850 19.323129 -11.788927 23.965363 -2.968990 1.151187 -0.491211 0.867415 -20.527563 24.163825 -9.354190 7.125000 0.000000 0.000000 4.728141 -3.958828 4.405346
0.083720 18.080142 8.866843 -6.037310 -4.175624 2.503069 -0.794852 3.942184 2.359157 -8.128335 -8.597477 -30.609498 1.831680 10.992629 32.231983 -1.450122 7.610409 10.548197 0.004911 -0.430949 -1.184036 2.617419 -5.008846 5.625029 27.508384 10.198608 -1.819552 -0.544739 -5.339867 22.495442 0.738076 -3.539925 -0.220295 -0.161874 -2.592280 7.145611 6.274374 1.820650 5.489863 4.088630 3.227126 2.450271 -2.265024 1.385267 -8.081283 -4.851390 -4.355241 -15.455748 2.926440 -4.943634 20.505270 -0.411050 -1.975528 9.890199 -7.237857 2.863016 -1.311338 -82.208368 7.438083 22.479737 11.131251 -19.276880 -1.974121 -0.632118 -0.874789 -3.693831 28.619126 19.113896 10.831721 -7.125000 0.000000 0.000000 0.938995 52.552311 0.174574 11.302519 -1.512353 -2.185214 71.737239 7.384666 19.636522 -11.827899 24.016672 -2.979533 1.157077 -0.498281 0.823964 -20.725678 24.358950 -9.519805 7.125000 0.000000 0.000000 4.624264 -3.715432 4.329204
0.087318 18.082218 8.968423 -6.170236 -4.288188 2.573915 -0.873899 3.914865 2.313575 -7.727693 -8.871505 -30.469355 1.461225 10.525876 30.648728 -1.497756 7.837448 10.642481 0.016929 -0.781450 -2.147903 2.646560 -5.028207 5.681803 27.561874 10.146517 -1.323127 -0.472297 -5.196286 22.086561 0.726566 -3.496398 -0.193517 -0.153291 -2.521969 6.950685 6.370653 1.844792 5.399544 4.160226 3.256482 2.486201 -2.256235 1.409862 -8.000637 -4.892855 -4.317692 -15.500531 2.883089 -4.867056 20.466700 -0.410310 -1.950294 9.886797 -7.242310 2.865163 -1.311005 -82.313148 7.457059 22.163785 11.032800 -19.113891 -1.939826 -0.629864 -0.858438 -3.281792 28.262733 18.750748 10.489056 -7.125000 0.000000 0.000000 0.631087 52.070886 0.113138 11.296857 -1.499776 -2.179171 71.604057 7.676103 19.911844 -11.922471 24.149446 -3.023736 1.149960 -0.491813 0.653996 -20.585934 24.314961 -9.434463 7.125000 0.000000 0.000000 4.710279 -3.787900 4.403885
0.090635 18.082636 9.069410 -6.312410 -4.404785 2.637901 -0.951984 3.888712 2.269105 -7.311811 -9.137567 -30.321186 1.096917 10.056061 29.068307 -1.536907 8.045066 10.782664 0.031523 -1.131774 -3.111652 2.675572 -5.048292 5.738247 27.630317 10.110008 -0.810443 -0.398473 -5.048550 21.665754 0.721556 -3.469486 -0.150358 -0.144396 -2.448697 6.747559 6.477306 1.874685 5.323917 4.230071 3.295167 2.528487 -2.255694 1.438588 -7.921947 -4.940551 -4.295523 -15.558491 2.847309 -4.810037 20.431101 -0.408706 -1.933491 9.886875 -7.245654 2.868179 -1.311956 -82.403740 7.502092 21.932005 10.965190 -19.000082 -1.916762 -0.627448 -0.842867 -2.933404 27.950559 18.384566 10.163950 -7.125000 0.000000 0.000000 0.369741 51.594648 0.059788 11.290213 -1.486562 -2.172276 71.480564 7.983556 20.173640 -12.028991 24.298655 -3.075457 1.140981 -0.477598 0.451099 -20.412375 24.125492 -9.279871 7.125000 0.000000 0.000000 4.803440 -4.023826 4.470281
0.092843 18.074709 9.165432 -6.504923 -4.549333 2.696042 -1.023209 3.863955 2.226945 -6.826107 -9.349797 -30.169725 0.755241 9.577132 27.491737 -1.546202 8.199350 11.120059 0.055982 -1.495427 -4.113702 2.703436 -5.067972 5.786620 27.781442 10.178131 -0.257192 -0.324254 -4.892599 21.222330 0.754864 -3.545091 -0.057106 -0.137618 -2.390631 6.586632 6.653828 1.939242 5.351387 4.268743 3.394678 2.556620 -2.326821 1.489433 -7.900597 -4.989513 -4.350684 -15.673965 2.860903 -4.862278 20.446180 -0.404695 -1.959079 9.913705 -7.243780 2.877270 -1.318579 -82.410649 7.675656 22.051497 11.003425 -19.063441 -1.931712 -0.631192 -0.834260 -2.873618 28.053399 18.090052 10.055611 -7.125000 0.000000 0.000000 0.531346 51.280420 0.081309 11.280555 -1.471818 -2.160956 71.437905 8.324128 20.377076 -12.175855 24.500812 -3.153231 1.127930 -0.425746 0.123403 -20.216720 23.221482 -8.855101 7.125000 0.000000 0.000000 4.840833 -5.038529 4.412101
0.095479 18.065264 9.262180 -6.725191 -4.680253 2.760250 -1.090118 3.838771 2.183770 -6.310943 -9.582554 -30.013145 0.426511 9.094956 25.924822 -1.557342 8.355498 11.424547 0.092688 -1.924292 -5.297837 2.727974 -5.083054 5.832269 27.959412 10.197764 0.251634 -0.259201 -4.749832 20.824907 0.772697 -3.577869 0.018460 -0.131458 -2.336981 6.437975 6.853066 1.989275 5.379440 4.317583 3.478660 2.570569 -2.401795 1.530602 -7.890689 -5.052037 -4.401090 -15.764724 2.899507 -4.911474 20.445828 -0.389994 -1.981892 9.931616 -7.242599 2.886458 -1.325020 -82.431448 7.847315 22.111840 11.028895 -19.108760 -1.941206 -0.634368 -0.834658 -2.856647 28.176690 18.087381 10.107143 -7.125000 0.000000 0.000000 0.661028 51.301405 0.103150 11.272530 -1.458496 -2.150125 71.404311 8.624186 20.578621 -12.288306 24.653593 -3.211063 1.118884 -0.389892 -0.086095 -20.109737 22.593588 -8.572811 7.125000 0.000000 0.000000 4.849099 -5.739059 4.355948
